<svg width="22" height="22" viewBox="0 0 22 22" fill="none" xmlns="http://www.w3.org/2000/svg">
<g id="Group 1000002961">
<circle id="Ellipse 339" cx="11" cy="11" r="11" fill="#FE5050"/>
<path id="Vector" d="M6.3167 6.3167C6.50327 6.13036 6.75617 6.0257 7.01986 6.0257C7.28354 6.0257 7.53645 6.13036 7.72302 6.3167L11 9.59368L14.277 6.3167C14.3681 6.21894 14.4779 6.14052 14.6 6.08614C14.722 6.03176 14.8538 6.00251 14.9874 6.00015C15.121 5.9978 15.2537 6.02237 15.3776 6.07242C15.5015 6.12246 15.6141 6.19695 15.7086 6.29144C15.803 6.38593 15.8775 6.49848 15.9276 6.62238C15.9776 6.74628 16.0022 6.87899 15.9998 7.01259C15.9975 7.14619 15.9682 7.27795 15.9139 7.40001C15.8595 7.52207 15.7811 7.63192 15.6833 7.72302L12.4063 11L15.6833 14.277C15.8591 14.4656 15.9548 14.7151 15.9502 14.9729C15.9457 15.2307 15.8412 15.4766 15.6589 15.6589C15.4766 15.8412 15.2307 15.9457 14.9729 15.9502C14.7151 15.9548 14.4656 15.8591 14.277 15.6833L11 12.4063L7.72302 15.6833C7.63192 15.7811 7.52207 15.8595 7.40001 15.9139C7.27795 15.9682 7.14619 15.9975 7.01259 15.9998C6.87899 16.0022 6.74628 15.9776 6.62238 15.9276C6.49848 15.8775 6.38593 15.803 6.29144 15.7086C6.19695 15.6141 6.12246 15.5015 6.07242 15.3776C6.02237 15.2537 5.9978 15.121 6.00015 14.9874C6.00251 14.8538 6.03176 14.722 6.08614 14.6C6.14052 14.4779 6.21894 14.3681 6.3167 14.277L9.59368 11L6.3167 7.72302C6.13036 7.53645 6.0257 7.28354 6.0257 7.01986C6.0257 6.75617 6.13036 6.50327 6.3167 6.3167Z" fill="white"/>
</g>
</svg>
