<svg width="22" height="22" viewBox="0 0 22 22" fill="none" xmlns="http://www.w3.org/2000/svg">
<circle cx="11" cy="11" r="11" fill="#4398FE"/>
<path d="M10.8986 6C10.1298 6 9.39255 6.30538 8.84897 6.84897C8.30538 7.39255 8 8.12981 8 8.89855C8 9.0523 8.06108 9.19975 8.16979 9.30847C8.27851 9.41718 8.42596 9.47826 8.57971 9.47826C8.73346 9.47826 8.88091 9.41718 8.98963 9.30847C9.09834 9.19975 9.15942 9.0523 9.15942 8.89855C9.15942 7.93739 9.93739 7.15942 10.8986 7.15942C11.8597 7.15942 12.6377 7.93739 12.6377 8.89855C12.6377 9.37159 12.5223 9.6487 12.3838 9.8429C12.2319 10.0545 12.0214 10.2128 11.7299 10.4139L11.6626 10.4591C11.4035 10.6365 11.0696 10.8643 10.811 11.182C10.5055 11.5577 10.3188 12.0325 10.3188 12.6667V12.9565C10.3188 13.1103 10.3799 13.2577 10.4886 13.3664C10.5974 13.4752 10.7448 13.5362 10.8986 13.5362C11.0523 13.5362 11.1998 13.4752 11.3085 13.3664C11.4172 13.2577 11.4783 13.1103 11.4783 12.9565V12.6667C11.4783 12.2864 11.5814 12.073 11.7101 11.9136C11.8591 11.7316 12.0597 11.5936 12.3559 11.3901L12.3867 11.3687C12.6742 11.1716 13.0435 10.913 13.3258 10.5177C13.6232 10.1049 13.7971 9.58435 13.7971 8.89855C13.7971 8.12981 13.4917 7.39255 12.9481 6.84897C12.4046 6.30538 11.6673 6 10.8986 6ZM10.8986 16C11.0907 16 11.2751 15.9237 11.4109 15.7878C11.5468 15.6519 11.6232 15.4675 11.6232 15.2754C11.6232 15.0832 11.5468 14.8989 11.4109 14.763C11.2751 14.6271 11.0907 14.5507 10.8986 14.5507C10.7064 14.5507 10.5221 14.6271 10.3862 14.763C10.2503 14.8989 10.1739 15.0832 10.1739 15.2754C10.1739 15.4675 10.2503 15.6519 10.3862 15.7878C10.5221 15.9237 10.7064 16 10.8986 16Z" fill="white"/>
</svg>
